<?xml version="1.0" encoding="UTF-8"?>
<svg width="752pt" height="752pt" version="1.1" viewBox="0 0 752 752" xmlns="http://www.w3.org/2000/svg">
 <defs>
  <clipPath id="a">
   <path d="m139.21 139.21h473.58v473.58h-473.58z"/>
  </clipPath>
 </defs>
 <g clip-path="url(#a)">
  <path d="m375.97 139.21c-51.316-0.11719-101.29 16.438-142.38 47.176-41.094 30.734-71.094 73.988-85.48 123.25-14.387 49.258-12.387 101.86 5.707 149.88 18.09 48.023 51.289 88.867 94.602 116.39s94.395 40.234 145.55 36.215c51.16-4.0195 99.629-24.543 138.11-58.492 0.32031-0.26562 0.625-0.54688 0.91016-0.85156 35.965-31.828 61.387-73.852 72.883-120.48 11.496-46.629 8.5234-95.652-8.5234-140.55-17.051-44.895-47.363-83.539-86.91-110.79-39.547-27.246-86.453-41.809-134.48-41.746zm0 453.57c-47.266-0.070312-93.199-15.684-130.71-44.441 75.816-32.336 89.797-48.023 93.207-59.047 0.29297-0.95703 0.44922-1.9531 0.45312-2.957v-19.891c0.007812-2.6133-1.0117-5.125-2.8398-6.9883-13.062-14.098-22.398-31.227-27.168-49.844-0.57812-2.2891-1.9492-4.3008-3.8633-5.6836-4.9922-3.582-8.2812-9.0742-9.0781-15.172-0.79688-6.0938 0.96875-12.246 4.8711-16.996 1.457-1.7773 2.2617-4.0039 2.2734-6.3047v-44.387c0-43.477 26.312-67.348 73.883-67.348 47.57 0 73.883 23.301 73.883 67.348v44.5c0.011719 2.3008 0.81641 4.5273 2.2734 6.3086 3.9219 4.75 5.6953 10.914 4.8984 17.023s-4.0938 11.613-9.1055 15.199c-1.918 1.3789-3.2891 3.3906-3.8633 5.6836-4.7656 18.613-14.105 35.746-27.168 49.84-1.8281 1.8672-2.8477 4.3789-2.8398 6.9922v19.891c0.007812 1 0.16016 1.9961 0.45312 2.9531 2.0469 6.6484 6.875 21.711 91.898 58.535v0.003906c-37.676 29.027-83.895 44.773-131.45 44.781zm148.73-59.445c-73.484-31.086-87.012-45.465-89.34-49.215v-13.754c13.207-15.102 22.91-32.938 28.414-52.23 7.9375-6.7461 13.098-16.195 14.484-26.52 1.3828-10.328-1.1016-20.801-6.9805-29.402v-41.145c0-55.523-34.098-87.406-94.059-87.406-58.992-0.003907-94.172 32.676-94.172 87.406v41.203c-5.918 8.6172-8.3945 19.141-6.9297 29.496 1.4062 10.25 6.5234 19.633 14.375 26.367 5.5156 19.289 15.219 37.121 28.418 52.23v13.926c-2.4453 4.1484-16.027 18.301-90.93 49.559v-0.003907c-31.727-29.691-53.793-68.23-63.344-110.62-9.5469-42.387-6.1406-86.664 9.7852-127.09 15.93-40.426 43.637-75.133 79.531-99.617s78.316-37.613 121.77-37.688c43.449-0.078125 85.918 12.91 121.89 37.27 35.98 24.359 63.809 58.969 79.875 99.34 16.062 40.371 19.625 84.637 10.223 127.06-9.4023 42.418-31.34 81.035-62.961 110.83z"/>
 </g>
</svg>
